<?xml version="1.0" standalone="no"?><!DOCTYPE svg PUBLIC "-//W3C//DTD SVG 1.1//EN" "http://www.w3.org/Graphics/SVG/1.1/DTD/svg11.dtd"><svg t="1583507853598" class="icon" viewBox="0 0 1024 1024" version="1.1" xmlns="http://www.w3.org/2000/svg" p-id="2404" xmlns:xlink="http://www.w3.org/1999/xlink" width="200" height="200"><defs><style type="text/css"></style></defs><path d="M865.17 353.72a25 25 0 0 0 25-25V98.23a25 25 0 0 0-25-25h-732a25 25 0 0 0-25 25V893a25 25 0 0 0 25 25H414.3a25 25 0 0 0 0-50H158.17V123.23h682v205.49a25 25 0 0 0 25 25z" p-id="2405"></path><path d="M762.34 235.18a25 25 0 0 0-25-25H260.86a25 25 0 0 0 0 50h476.48a25 25 0 0 0 25-25zM624.48 454a25 25 0 0 0-25-25H271.59a25 25 0 1 0 0 50h327.89a25 25 0 0 0 25-25zM260.86 641.53a25 25 0 0 0 0 50h189.25a25 25 0 0 0 0-50zM932.77 496l-84-67.27a25 25 0 0 0-35.06 3.78l-273 337.24a24.94 24.94 0 0 0-5.36 12.48l-14.1 107.57a25 25 0 0 0 34.29 26.37l98-40.28a24.87 24.87 0 0 0 9.93-7.39l273-337.24a25 25 0 0 0-3.7-35.26z m-304.1 336.07l-52.24 21.46 7.57-57.78 253-312.42 44.93 36z" p-id="2406"></path></svg>